<svg width="63" height="79" viewBox="0 0 63 79" fill="none" xmlns="http://www.w3.org/2000/svg">
<path d="M47.8321 29.072H21.1567L28.2889 21.9172C29.2729 20.93 29.2729 19.3291 28.2889 18.342C27.3048 17.3548 25.709 17.3548 24.725 18.342L13.2911 29.8121C13.1739 29.9297 13.0693 30.0599 12.9767 30.1983C12.9389 30.2545 12.9137 30.3165 12.881 30.3746C12.8337 30.4599 12.7827 30.5427 12.7449 30.6337C12.7147 30.7077 12.6983 30.7841 12.675 30.86C12.6498 30.9415 12.6189 31.0211 12.6019 31.1065C12.5767 31.2354 12.5679 31.3662 12.5628 31.497C12.5616 31.5318 12.5527 31.564 12.5527 31.5994C12.5527 31.6386 12.5628 31.6753 12.5641 31.7138C12.5698 31.8402 12.5773 31.9666 12.6025 32.0917C12.6202 32.1821 12.6523 32.2655 12.6794 32.3521C12.7014 32.4229 12.7165 32.495 12.7449 32.5638C12.7852 32.6618 12.8394 32.7528 12.8917 32.8438C12.9207 32.895 12.9427 32.9494 12.9755 32.9993C13.0687 33.1402 13.1752 33.2711 13.2943 33.3899L24.725 44.8569C25.217 45.3505 25.8621 45.5976 26.5073 45.5976C27.1524 45.5976 27.7969 45.3505 28.2895 44.8569C29.2736 43.8697 29.2736 42.2688 28.2895 41.2823L21.1573 34.128H47.8321C49.2238 34.128 50.3521 32.9961 50.3521 31.6C50.3521 30.204 49.2238 29.072 47.8321 29.072Z" fill="white"/>
</svg>
